<mxfile host="app.diagrams.net" modified="2023-06-23T20:29:47.825Z" agent="Mozilla/5.0 (Windows NT 10.0; Win64; x64) AppleWebKit/537.36 (KHTML, like Gecko) Chrome/114.0.0.0 Safari/537.36" etag="PVm3XWSqfA7a496NzRFJ" version="21.3.8" type="github">
  <diagram name="Страница 1" id="QxNx1Gtn70cpfNV3WrKD">
    <mxGraphModel dx="1994" dy="646" grid="0" gridSize="10" guides="1" tooltips="1" connect="1" arrows="1" fold="1" page="1" pageScale="1" pageWidth="827" pageHeight="1169" math="0" shadow="0">
      <root>
        <mxCell id="0" />
        <mxCell id="1" parent="0" />
        <mxCell id="g_pcTFbCC6W_PU6OvJRS-20" value="" style="shape=image;verticalLabelPosition=bottom;labelBackgroundColor=default;verticalAlign=top;aspect=fixed;imageAspect=0;image=data:image/png,iVBORw0KGgoAAAANSUhEUgAAAPAAAACSCAYAAAB7aUfDAAAAAXNSR0IArs4c6QAAAARnQU1BAACxjwv8YQUAAAAJcEhZcwAADsMAAA7DAcdvqGQAAAHHSURBVHhe7dNBDcAwEMCwWykNzmiMf/spiUj2JwjyvN+/B0hat0CQgSHMwBBmYAgzMIQZGMIMDGEGhjADQ5iBIczAEGZgCDMwhBkYwgwMYQaGMANDmIEhzMAQZmAIMzCEGRjCDAxhBoYwA0OYgSHMwBBmYAgzMIQZGMIMDGEGhjADQ5iBIczAEGZgCDMwhBkYwgwMYQaGMANDmIEhzMAQZmAIMzCEGRjCDAxhBoYwA0OYgSHMwBBmYAgzMIQZGMIMDGEGhjADQ5iBIczAEGZgCDMwhBkYwgwMYQaGMANDmIEhzMAQZmAIMzCEGRjCDAxhBoYwA0OYgSHMwBBmYAgzMIQZGMIMDGEGhjADQ5iBIczAEGZgCDMwhBkYwgwMYQaGMANDmIEhzMAQZmAIMzCEGRjCDAxhBoYwA0OYgSHMwBBmYAgzMIQZGMIMDGEGhjADQ5iBIczAEGZgCDMwhBkYwgwMYQaGMANDmIEhzMAQZmAIMzCEGRjCDAxhBoYwA0OYgSHMwBBmYAgzMIQZGMIMDGEGhjADQ5iBIczAEGZgCDMwhBkYwgwMYQaGMANDmIEhzMAQZmAIMzCEGRjCDAxhBoYwA0PWzAFK8gMl/cVTzQAAAABJRU5ErkJggg==;fillColor=#CC99FF;" vertex="1" parent="1">
          <mxGeometry x="-754" width="1581.3" height="961.96" as="geometry" />
        </mxCell>
        <mxCell id="g_pcTFbCC6W_PU6OvJRS-1" value="&lt;font color=&quot;#ffffff&quot; style=&quot;font-size: 17px;&quot;&gt;Автоматизированная система управления логистикой предприятия ООО &quot;Газпром трансгаз Махачкала&quot;&lt;/font&gt;" style="ellipse;whiteSpace=wrap;html=1;aspect=fixed;fillColor=#9999FF;" vertex="1" parent="1">
          <mxGeometry x="335" y="100" width="217" height="217" as="geometry" />
        </mxCell>
        <mxCell id="g_pcTFbCC6W_PU6OvJRS-2" value="&lt;font color=&quot;#ffffff&quot; style=&quot;font-size: 14px;&quot;&gt;Подсистема управления запасами и складским хозяйством&lt;/font&gt;" style="rounded=1;whiteSpace=wrap;html=1;fillColor=#9999FF;" vertex="1" parent="1">
          <mxGeometry x="114" y="39" width="181" height="79" as="geometry" />
        </mxCell>
        <mxCell id="g_pcTFbCC6W_PU6OvJRS-3" value="&lt;font color=&quot;#ffffff&quot; style=&quot;font-size: 14px;&quot;&gt;Подсистема транспортной логистики&lt;/font&gt;" style="rounded=1;whiteSpace=wrap;html=1;fillColor=#9999FF;" vertex="1" parent="1">
          <mxGeometry x="114" y="169" width="181" height="79" as="geometry" />
        </mxCell>
        <mxCell id="g_pcTFbCC6W_PU6OvJRS-6" value="&lt;font color=&quot;#ffffff&quot; style=&quot;font-size: 14px;&quot;&gt;Подсистема контроля качества и безопасности&lt;/font&gt;" style="rounded=1;whiteSpace=wrap;html=1;fillColor=#9999FF;" vertex="1" parent="1">
          <mxGeometry x="610" y="238" width="181" height="79" as="geometry" />
        </mxCell>
        <mxCell id="g_pcTFbCC6W_PU6OvJRS-7" value="&lt;font color=&quot;#ffffff&quot; style=&quot;font-size: 14px;&quot;&gt;Подсистема планирования и оптимизации&lt;/font&gt;" style="rounded=1;whiteSpace=wrap;html=1;fillColor=#9999FF;" vertex="1" parent="1">
          <mxGeometry x="610" y="100" width="181" height="79" as="geometry" />
        </mxCell>
        <mxCell id="g_pcTFbCC6W_PU6OvJRS-8" value="" style="endArrow=none;html=1;rounded=0;exitX=1;exitY=0.5;exitDx=0;exitDy=0;entryX=0;entryY=0;entryDx=0;entryDy=0;edgeStyle=orthogonalEdgeStyle;curved=1;strokeColor=#FFFFFF;" edge="1" parent="1" source="g_pcTFbCC6W_PU6OvJRS-2" target="g_pcTFbCC6W_PU6OvJRS-1">
          <mxGeometry width="50" height="50" relative="1" as="geometry">
            <mxPoint x="387" y="289" as="sourcePoint" />
            <mxPoint x="437" y="239" as="targetPoint" />
          </mxGeometry>
        </mxCell>
        <mxCell id="g_pcTFbCC6W_PU6OvJRS-9" value="" style="endArrow=none;html=1;rounded=0;exitX=1;exitY=0.5;exitDx=0;exitDy=0;entryX=0;entryY=1;entryDx=0;entryDy=0;edgeStyle=orthogonalEdgeStyle;curved=1;strokeColor=#FFFFFF;" edge="1" parent="1" target="g_pcTFbCC6W_PU6OvJRS-1">
          <mxGeometry width="50" height="50" relative="1" as="geometry">
            <mxPoint x="-39" y="54.5" as="sourcePoint" />
            <mxPoint x="437" y="239" as="targetPoint" />
            <Array as="points">
              <mxPoint x="69" y="79" />
              <mxPoint x="69" y="291" />
              <mxPoint x="367" y="291" />
            </Array>
          </mxGeometry>
        </mxCell>
        <mxCell id="g_pcTFbCC6W_PU6OvJRS-11" value="" style="endArrow=none;html=1;rounded=0;exitX=1;exitY=0.5;exitDx=0;exitDy=0;entryX=0;entryY=0.5;entryDx=0;entryDy=0;edgeStyle=orthogonalEdgeStyle;curved=1;strokeColor=#FFFFFF;" edge="1" parent="1" source="g_pcTFbCC6W_PU6OvJRS-3" target="g_pcTFbCC6W_PU6OvJRS-1">
          <mxGeometry width="50" height="50" relative="1" as="geometry">
            <mxPoint x="387" y="289" as="sourcePoint" />
            <mxPoint x="437" y="239" as="targetPoint" />
          </mxGeometry>
        </mxCell>
        <mxCell id="g_pcTFbCC6W_PU6OvJRS-12" value="" style="endArrow=none;html=1;rounded=0;entryX=0;entryY=0.5;entryDx=0;entryDy=0;exitX=1;exitY=0.5;exitDx=0;exitDy=0;edgeStyle=orthogonalEdgeStyle;curved=1;strokeColor=#FFFFFF;" edge="1" parent="1" source="g_pcTFbCC6W_PU6OvJRS-1" target="g_pcTFbCC6W_PU6OvJRS-7">
          <mxGeometry width="50" height="50" relative="1" as="geometry">
            <mxPoint x="387" y="289" as="sourcePoint" />
            <mxPoint x="437" y="239" as="targetPoint" />
          </mxGeometry>
        </mxCell>
        <mxCell id="g_pcTFbCC6W_PU6OvJRS-14" value="" style="endArrow=none;html=1;rounded=0;entryX=0;entryY=0.5;entryDx=0;entryDy=0;exitX=1;exitY=0.5;exitDx=0;exitDy=0;edgeStyle=orthogonalEdgeStyle;curved=1;strokeColor=#FFFFFF;" edge="1" parent="1" source="g_pcTFbCC6W_PU6OvJRS-1" target="g_pcTFbCC6W_PU6OvJRS-6">
          <mxGeometry width="50" height="50" relative="1" as="geometry">
            <mxPoint x="387" y="289" as="sourcePoint" />
            <mxPoint x="437" y="239" as="targetPoint" />
          </mxGeometry>
        </mxCell>
        <mxCell id="g_pcTFbCC6W_PU6OvJRS-28" style="edgeStyle=orthogonalEdgeStyle;rounded=0;orthogonalLoop=1;jettySize=auto;html=1;exitX=1;exitY=0.25;exitDx=0;exitDy=0;entryX=0;entryY=0.25;entryDx=0;entryDy=0;strokeColor=#FFFFFF;" edge="1" parent="1" source="g_pcTFbCC6W_PU6OvJRS-22" target="g_pcTFbCC6W_PU6OvJRS-23">
          <mxGeometry relative="1" as="geometry" />
        </mxCell>
        <mxCell id="g_pcTFbCC6W_PU6OvJRS-22" value="&lt;font color=&quot;#ffffff&quot; style=&quot;font-size: 22px;&quot;&gt;Клиент&lt;/font&gt;" style="rounded=1;whiteSpace=wrap;html=1;fillColor=#9999FF;" vertex="1" parent="1">
          <mxGeometry x="-515" y="219" width="113" height="160" as="geometry" />
        </mxCell>
        <mxCell id="g_pcTFbCC6W_PU6OvJRS-29" style="edgeStyle=orthogonalEdgeStyle;rounded=0;orthogonalLoop=1;jettySize=auto;html=1;exitX=0;exitY=0.75;exitDx=0;exitDy=0;entryX=1;entryY=0.75;entryDx=0;entryDy=0;strokeColor=#FFFFFF;" edge="1" parent="1" source="g_pcTFbCC6W_PU6OvJRS-23" target="g_pcTFbCC6W_PU6OvJRS-22">
          <mxGeometry relative="1" as="geometry" />
        </mxCell>
        <mxCell id="g_pcTFbCC6W_PU6OvJRS-32" style="rounded=0;orthogonalLoop=1;jettySize=auto;html=1;exitX=1;exitY=0.25;exitDx=0;exitDy=0;entryX=0;entryY=0;entryDx=0;entryDy=27.5;entryPerimeter=0;strokeColor=#FFFFFF;" edge="1" parent="1" source="g_pcTFbCC6W_PU6OvJRS-23" target="g_pcTFbCC6W_PU6OvJRS-24">
          <mxGeometry relative="1" as="geometry" />
        </mxCell>
        <mxCell id="g_pcTFbCC6W_PU6OvJRS-23" value="&lt;font color=&quot;#ffffff&quot; style=&quot;font-size: 22px;&quot;&gt;Сервер&lt;/font&gt;" style="rounded=1;whiteSpace=wrap;html=1;fillColor=#9999FF;" vertex="1" parent="1">
          <mxGeometry x="-295" y="219" width="113" height="160" as="geometry" />
        </mxCell>
        <mxCell id="g_pcTFbCC6W_PU6OvJRS-33" style="rounded=0;orthogonalLoop=1;jettySize=auto;html=1;exitX=0;exitY=0;exitDx=0;exitDy=52.5;exitPerimeter=0;entryX=1;entryY=0.75;entryDx=0;entryDy=0;strokeColor=#FFFFFF;" edge="1" parent="1" source="g_pcTFbCC6W_PU6OvJRS-24" target="g_pcTFbCC6W_PU6OvJRS-23">
          <mxGeometry relative="1" as="geometry" />
        </mxCell>
        <mxCell id="g_pcTFbCC6W_PU6OvJRS-24" value="&lt;font color=&quot;#ffffff&quot; style=&quot;font-size: 25px;&quot;&gt;БД&lt;/font&gt;" style="shape=cylinder3;whiteSpace=wrap;html=1;boundedLbl=1;backgroundOutline=1;size=15;fillColor=#9999FF;" vertex="1" parent="1">
          <mxGeometry x="-127" y="259" width="110" height="80" as="geometry" />
        </mxCell>
        <mxCell id="g_pcTFbCC6W_PU6OvJRS-25" value="&lt;font style=&quot;font-size: 21px;&quot; color=&quot;#ffffff&quot;&gt;1 звено&lt;/font&gt;" style="text;html=1;strokeColor=none;fillColor=none;align=center;verticalAlign=middle;whiteSpace=wrap;rounded=0;" vertex="1" parent="1">
          <mxGeometry x="-504.5" y="184" width="92" height="30" as="geometry" />
        </mxCell>
        <mxCell id="g_pcTFbCC6W_PU6OvJRS-26" value="&lt;font style=&quot;font-size: 21px;&quot; color=&quot;#ffffff&quot;&gt;2 звено&lt;/font&gt;" style="text;html=1;strokeColor=none;fillColor=none;align=center;verticalAlign=middle;whiteSpace=wrap;rounded=0;" vertex="1" parent="1">
          <mxGeometry x="-284.5" y="184" width="92" height="30" as="geometry" />
        </mxCell>
        <mxCell id="g_pcTFbCC6W_PU6OvJRS-30" value="&lt;font color=&quot;#ffffff&quot; style=&quot;font-size: 15px;&quot;&gt;запрос&lt;/font&gt;" style="text;html=1;strokeColor=none;fillColor=none;align=center;verticalAlign=middle;whiteSpace=wrap;rounded=0;" vertex="1" parent="1">
          <mxGeometry x="-381" y="226" width="60" height="30" as="geometry" />
        </mxCell>
        <mxCell id="g_pcTFbCC6W_PU6OvJRS-31" value="&lt;font color=&quot;#ffffff&quot; style=&quot;font-size: 15px;&quot;&gt;ответ&lt;/font&gt;" style="text;html=1;strokeColor=none;fillColor=none;align=center;verticalAlign=middle;whiteSpace=wrap;rounded=0;" vertex="1" parent="1">
          <mxGeometry x="-381" y="343" width="60" height="30" as="geometry" />
        </mxCell>
      </root>
    </mxGraphModel>
  </diagram>
</mxfile>
